PathFileType	4	(X/Y/Z)	CPRIT_Patient3_R_HipIso_Processed.TRC
DataRate	CameraRate	NumFrames	NumMarkers	Units	OrigDataRate	OrigDataStartFrame	OrigNumFrames
150.128314798973	150.128314798973	4	39	m	150.128314798973	879	       1171
Frame#	Time	R.Heel			R.Midfoot.Superior			R.Midfoot.Lateral			R.Toe			L.Heel			L.Midfoot.Superior			L.Midfoot.Lateral			L.Toe			R.Shank.Superior			R.Shank.Inferior			R.Shank.Lateral			R.Shank.Posterior			L.Shank.Superior			L.Shank.Inferior			L.Shank.Posterior			L.Shank.Lateral			R.Patella			L.Patella			R.Thigh.Superior			R.Thigh.Lateral			R.Thigh.Inferior			L.Thigh.Superior			L.Thigh.Inferior			L.Thigh.Lateral			L.Asis			R.Asis			Sacral			R.Shoulder			L.Shoulder			C7			J.Notch			Sternum			Thoracic			L.Elbow			L.Wrist			R.Elbow			R.Wrist			R.PSIS			L.PSIS			
		X1	Y1	Z1	X2	Y2	Z2	X3	Y3	Z3	X4	Y4	Z4	X5	Y5	Z5	X6	Y6	Z6	X7	Y7	Z7	X8	Y8	Z8	X9	Y9	Z9	X10	Y10	Z10	X11	Y11	Z11	X12	Y12	Z12	X13	Y13	Z13	X14	Y14	Z14	X15	Y15	Z15	X16	Y16	Z16	X17	Y17	Z17	X18	Y18	Z18	X19	Y19	Z19	X20	Y20	Z20	X21	Y21	Z21	X22	Y22	Z22	X23	Y23	Z23	X24	Y24	Z24	X25	Y25	Z25	X26	Y26	Z26	X27	Y27	Z27	X28	Y28	Z28	X29	Y29	Z29	X30	Y30	Z30	X31	Y31	Z31	X32	Y32	Z32	X33	Y33	Z33	X34	Y34	Z34	X35	Y35	Z35	X36	Y36	Z36	X37	Y37	Z37	X38	Y38	Z38	X39	Y39	Z39	

879	5.848330484330	0.121082180872	0.478930636342	-0.399275237589	0.177350904028	0.377799387612	-0.261198038647	0.087537130524	0.432296142215	-0.321615250366	0.158217918445	0.265270371294	-0.208315933953	0.720452932915	0.042583708403	-0.222242954926	0.890570884980	0.096694095810	-0.215284310495	0.806618125211	0.032844755773	-0.268899865589	1.007647886169	0.058497170670	-0.203898669399	0.365530496550	0.518568866334	-0.148814711932	0.272567598530	0.477234395736	-0.216298336207	0.271611137850	0.576537827322	-0.184284537384	0.349804032862	0.630404468897	-0.228925317377	0.845022269054	0.366032432660	-0.248749706303	0.836407441870	0.239083497261	-0.236687305202	0.713475928145	0.339426148236	-0.282807656147	0.797767698819	0.278209685179	-0.311018722522	0.478884208694	0.550435491345	-0.082709491783	0.861854331052	0.479245834213	-0.232495842739	0.699966155681	0.795204961956	0.002886881762	0.578524904703	0.791558373776	-0.026464766739	0.615715379394	0.658692571457	-0.037899893811	0.920008994024	0.760941359087	-0.232645257633	0.893079978445	0.613559608713	-0.224133073233	0.849968713278	0.704844119283	-0.326595791063	0.922208727468	0.902817338150	-0.205495772201	0.797808433169	0.933118260038	-0.001390260544	0.731154710552	1.031848642299	-0.187630641301	0.864552835186	1.409813839709	0.042070158471	0.985446126999	1.431125132514	-0.264337308077	0.888862531845	1.471644389950	-0.114958790799	0.986870714304	1.354121118080	-0.091516136802	0.999844794792	1.161782621611	-0.084805624510	0.787709091969	1.336106328147	-0.167837785282	0.917756967855	1.188221753704	-0.480465956254	1.063322187233	0.974380392919	-0.484444333543	0.758105849250	1.154684406233	0.216865620255	0.842582248860	0.989181772003	0.398114592987	0.719160382195	1.042709571940	-0.155895717905	0.749364014945	1.026267234040	-0.222255081573	
880	5.854991452991	0.123657029671	0.471844359528	-0.396726019033	0.181540930572	0.372199312363	-0.258346095603	0.090916862710	0.425341387092	-0.318629417576	0.163904889496	0.259792806048	-0.204695391290	0.720454523614	0.042584664792	-0.222240470647	0.890574306394	0.096690008269	-0.215286651818	0.806620270889	0.032842251726	-0.268900266850	1.007650833739	0.058489448894	-0.203901132003	0.368506092995	0.515388532257	-0.147372819448	0.275766896059	0.472755845958	-0.214311441068	0.273913687366	0.572201315847	-0.182803450067	0.351411307409	0.626574329170	-0.228005683067	0.845101891453	0.365943719876	-0.248939189298	0.836452151808	0.239059188971	-0.236728014841	0.713522544898	0.339418401209	-0.282857994627	0.797680794777	0.278227898565	-0.310877069656	0.481713260174	0.548616067006	-0.081893582903	0.861929699492	0.479225962703	-0.232569519645	0.701013924324	0.794798580121	0.003087059193	0.579567287415	0.790283970710	-0.026047276729	0.617685318719	0.657704516000	-0.037601975399	0.920139256216	0.760969170450	-0.232690361577	0.893190119244	0.613539298017	-0.224204940809	0.850086068917	0.704835083737	-0.326566745044	0.922292957224	0.902971223866	-0.205690164668	0.798021586169	0.933109423682	-0.001506443069	0.730994233790	1.031632082730	-0.187777768560	0.864269089601	1.409793197671	0.041989405862	0.985412040959	1.431224231885	-0.264348387813	0.888692510645	1.471685706642	-0.115043933667	0.986621352108	1.354143761913	-0.091544987342	0.999661709385	1.161852551092	-0.084850074034	0.787546221714	1.336192208652	-0.168055877234	0.917797819561	1.188303169736	-0.480517276433	1.063276534290	0.974396475922	-0.484415299713	0.757991514538	1.154598630928	0.216783740455	0.842567522998	0.989180031328	0.398103417696	0.718919907226	1.042420848923	-0.156032953993	0.749204176696	1.026080325110	-0.222400359568	
881	5.861652421652	0.126450879940	0.464408766770	-0.393960129767	0.186049071683	0.366335475061	-0.255300241885	0.094571992279	0.418039343807	-0.315416616989	0.170004838378	0.254078179755	-0.200852830103	0.720456257875	0.042585783454	-0.222237474096	0.890578288214	0.096685831802	-0.215289546799	0.806622504231	0.032839852305	-0.268900486201	1.007654112349	0.058481036625	-0.203904236605	0.371714422832	0.512043901253	-0.145829192789	0.279217856482	0.468053096696	-0.212177661510	0.276413893715	0.567632225121	-0.181184010781	0.353156417695	0.622551234177	-0.226978664080	0.845188083633	0.365849547317	-0.249141758171	0.836500403456	0.239033816142	-0.236770958128	0.713570884643	0.339412055676	-0.282904083956	0.797593083655	0.278245520729	-0.310734864431	0.484758887358	0.546695556339	-0.081030471170	0.862013478786	0.479205835771	-0.232650887190	0.702174154118	0.794363025531	0.003296817547	0.580725176961	0.788928339411	-0.025581411582	0.619823853113	0.656658367432	-0.037298071927	0.920286243578	0.761002193695	-0.232750287872	0.893312509198	0.613518589112	-0.224287562318	0.850209186807	0.704826776959	-0.326535581371	0.922392515654	0.903141767168	-0.205916247474	0.798292985369	0.933099080813	-0.001632307089	0.730831544521	1.031404196087	-0.187924077361	0.863948973793	1.409782805832	0.041902377906	0.985330138964	1.431346021230	-0.264369255313	0.888474578029	1.471737595578	-0.115131116833	0.986332650494	1.354185894427	-0.091581767476	0.999468825096	1.161945973987	-0.084910923330	0.787348549023	1.336283062987	-0.168286121780	0.917814410044	1.188377221300	-0.480558718698	1.063225002433	0.974414273940	-0.484383290398	0.757866752227	1.154509832707	0.216709460204	0.842554663708	0.989178804544	0.398094901145	0.718676719899	1.042113176473	-0.156164985779	0.749038117198	1.025883497162	-0.222545395203	
882	5.868313390313	0.129471354528	0.456640616236	-0.390979468570	0.190877613708	0.360228303022	-0.252063036777	0.098509440574	0.410410227803	-0.311979164264	0.176517467206	0.248152301556	-0.196791347581	0.720458146760	0.042587037194	-0.222233996772	0.890582829259	0.096681561035	-0.215292905093	0.806624817148	0.032837587446	-0.268900506381	1.007657717270	0.058471922914	-0.203907905710	0.375153278999	0.508547938036	-0.144185401509	0.282921063389	0.463141739387	-0.209898556608	0.279113222587	0.562844008993	-0.179427281461	0.355039825777	0.618346261031	-0.225844314766	0.845280568429	0.365750468643	-0.249355856613	0.836552084786	0.239007498943	-0.236815567549	0.713621004439	0.339407158238	-0.282945755947	0.797506454578	0.278262169909	-0.310594030992	0.488015552317	0.544684132370	-0.080121603805	0.862105380905	0.479185628006	-0.232739193849	0.703444125230	0.793901814505	0.003514439662	0.581997273302	0.787497924785	-0.025067756397	0.622126152125	0.655560580594	-0.036990066080	0.920448771249	0.761040697273	-0.232823252368	0.893446365843	0.613497882729	-0.224379539178	0.850338317894	0.704819468502	-0.326501209500	0.922505938306	0.903328040092	-0.206172812278	0.798620996827	0.933089311935	-0.001768044223	0.730667049644	1.031166739814	-0.188070502419	0.863593038015	1.409782937454	0.041809067517	0.985201537155	1.431490263736	-0.264399608542	0.888209714534	1.471800096342	-0.115220247286	0.986005869333	1.354247819544	-0.091626099690	0.999266705625	1.162062750526	-0.084987664876	0.787117470727	1.336378602791	-0.168528287305	0.917807488873	1.188444185863	-0.480590268883	1.063167893151	0.974433731621	-0.484348499173	0.757731485516	1.154418276514	0.216643313626	0.842543802160	0.989178089525	0.398089037377	0.718431498479	1.041788372445	-0.156292673060	0.748866575765	1.025677883077	-0.222690684794	
